<?xml version="1.0" encoding="utf-8"?>
<!-- Generator: Adobe Illustrator 16.0.3, SVG Export Plug-In . SVG Version: 6.00 Build 0)  -->
<!DOCTYPE svg PUBLIC "-//W3C//DTD SVG 1.1 Tiny//EN" "http://www.w3.org/Graphics/SVG/1.1/DTD/svg11-tiny.dtd">
<svg version="1.1" baseProfile="tiny" id="Ebene_1" xmlns="http://www.w3.org/2000/svg" xmlns:xlink="http://www.w3.org/1999/xlink"
	 x="0px" y="0px" width="544.252px" height="147.402px" viewBox="0 0 544.252 147.402" xml:space="preserve">
<g>
	<g display="none">
		<path display="inline" fill="#242F68" d="M189.586,60.054h9.936l7.363,23.465h0.089l7.363-23.465h9.936v30.961h-5.944v-25.55
			h-0.089l-8.339,25.55h-5.944l-8.339-25.55l-0.089,0.089v25.461h-5.944V60.054z"/>
		<path display="inline" fill="#242F68" d="M234.162,69.369c2.306-1.064,5.412-1.73,7.94-1.73c6.964,0,9.847,2.883,9.847,9.625
			v2.928c0,2.307,0.044,4.037,0.089,5.722c0.044,1.73,0.133,3.327,0.266,5.101h-5.234c-0.222-1.198-0.222-2.706-0.266-3.416h-0.089
			c-1.375,2.528-4.347,3.948-7.053,3.948c-4.037,0-7.984-2.439-7.984-6.787c0-3.416,1.642-5.412,3.904-6.521
			s5.189-1.331,7.674-1.331h3.282c0-3.682-1.641-4.924-5.146-4.924c-2.528,0-5.057,0.976-7.053,2.484L234.162,69.369z
			 M241.125,87.201c1.819,0,3.238-0.798,4.169-2.04c0.976-1.287,1.242-2.928,1.242-4.702h-2.573c-2.662,0-6.609,0.444-6.609,3.948
			C237.355,86.358,238.997,87.201,241.125,87.201z"/>
		<path display="inline" fill="#242F68" d="M260.153,57.748h5.944v33.268h-5.944V57.748z"/>
		<path display="inline" fill="#242F68" d="M292.888,89.729c-2.174,1.197-4.658,1.818-7.852,1.818
			c-7.541,0-11.932-4.347-11.932-11.843c0-6.609,3.504-12.065,10.602-12.065c8.472,0,10.868,5.811,10.868,13.795h-15.792
			c0.266,3.682,2.839,5.766,6.521,5.766c2.883,0,5.368-1.064,7.585-2.306V89.729z M288.896,77.354
			c-0.178-2.883-1.508-5.367-4.835-5.367c-3.327,0-5.013,2.307-5.279,5.367H288.896z"/>
		<path display="inline" fill="#242F68" d="M301.58,68.171h5.278v5.19h0.089c0.266-2.129,2.706-5.722,6.254-5.722
			c0.577,0,1.198,0,1.818,0.178v5.988c-0.532-0.311-1.597-0.488-2.661-0.488c-4.835,0-4.835,6.033-4.835,9.315v8.383h-5.944V68.171z
			"/>
		<path display="inline" fill="#242F68" d="M338.438,89.729c-2.174,1.197-4.658,1.818-7.852,1.818
			c-7.541,0-11.932-4.347-11.932-11.843c0-6.609,3.504-12.065,10.602-12.065c8.472,0,10.868,5.811,10.868,13.795h-15.792
			c0.266,3.682,2.839,5.766,6.521,5.766c2.883,0,5.368-1.064,7.585-2.306V89.729z M334.446,77.354
			c-0.178-2.883-1.508-5.367-4.835-5.367c-3.327,0-5.013,2.307-5.279,5.367H334.446z"/>
		<path display="inline" fill="#242F68" d="M347.13,58.324h5.944v5.678h-5.944V58.324z M347.13,68.171h5.944v22.844h-5.944V68.171z"
			/>
		<path display="inline" fill="#242F68" d="M361.501,57.748h5.944v13.352h0.089c1.641-2.173,3.726-3.46,6.831-3.46
			c7.008,0,9.581,5.589,9.581,11.888c0,6.254-2.573,12.021-9.581,12.021c-2.528,0-5.279-0.887-7.008-3.327h-0.089v2.794h-5.767
			V57.748z M372.724,86.935c3.903,0,5.012-4.258,5.012-7.408c0-3.061-1.064-7.274-4.924-7.274c-3.814,0-5.323,4.081-5.323,7.274
			C367.489,82.765,368.776,86.935,372.724,86.935z"/>
		<path display="inline" fill="#242F68" d="M409.094,89.729c-2.174,1.197-4.658,1.818-7.852,1.818
			c-7.541,0-11.932-4.347-11.932-11.843c0-6.609,3.504-12.065,10.602-12.065c8.472,0,10.868,5.811,10.868,13.795h-15.792
			c0.266,3.682,2.839,5.766,6.521,5.766c2.883,0,5.368-1.064,7.585-2.306V89.729z M405.102,77.354
			c-0.178-2.883-1.508-5.367-4.835-5.367c-3.327,0-5.013,2.307-5.279,5.367H405.102z"/>
		<path display="inline" fill="#242F68" d="M419.56,72.519h-4.391v-4.347h4.391v-4.568l5.944-1.908v6.476h5.279v4.347h-5.279v10.646
			c0,1.952,0.533,3.77,2.795,3.77c1.064,0,2.084-0.222,2.706-0.621l0.177,4.702c-1.242,0.355-2.617,0.532-4.391,0.532
			c-4.658,0-7.23-2.883-7.23-7.408V72.519z"/>
		<path display="inline" fill="#242F68" d="M437.212,68.171h5.278v5.19h0.089c0.266-2.129,2.706-5.722,6.254-5.722
			c0.577,0,1.198,0,1.818,0.178v5.988c-0.532-0.311-1.597-0.488-2.661-0.488c-4.835,0-4.835,6.033-4.835,9.315v8.383h-5.944V68.171z
			"/>
		<path display="inline" fill="#242F68" d="M456.683,58.324h5.944v5.678h-5.944V58.324z M456.683,68.171h5.944v22.844h-5.944V68.171
			z"/>
		<path display="inline" fill="#242F68" d="M489.418,89.729c-2.174,1.197-4.658,1.818-7.852,1.818
			c-7.541,0-11.932-4.347-11.932-11.843c0-6.609,3.504-12.065,10.602-12.065c8.472,0,10.868,5.811,10.868,13.795h-15.792
			c0.266,3.682,2.839,5.766,6.521,5.766c2.883,0,5.368-1.064,7.585-2.306V89.729z M485.426,77.354
			c-0.178-2.883-1.508-5.367-4.835-5.367c-3.327,0-5.013,2.307-5.279,5.367H485.426z"/>
		<path display="inline" fill="#242F68" d="M497.977,57.748h5.944v13.352h0.089c1.641-2.173,3.726-3.46,6.831-3.46
			c7.008,0,9.581,5.589,9.581,11.888c0,6.254-2.573,12.021-9.581,12.021c-2.528,0-5.279-0.887-7.008-3.327h-0.089v2.794h-5.767
			V57.748z M509.199,86.935c3.903,0,5.012-4.258,5.012-7.408c0-3.061-1.064-7.274-4.924-7.274c-3.814,0-5.323,4.081-5.323,7.274
			C503.965,82.765,505.251,86.935,509.199,86.935z"/>
	</g>
	<g display="none">
		<path display="inline" fill="#242F68" d="M198.504,111.579h-8.624v-4.743h23.285v4.743h-8.624v25.355h-6.037V111.579z"/>
		<path display="inline" fill="#242F68" d="M218.639,104.594h5.778v13.152h0.086c1.466-2.156,3.967-3.536,6.986-3.536
			c5.261,0,7.546,3.708,7.546,8.71v14.015h-5.778v-11.858c0-2.717-0.043-6.382-3.751-6.382c-4.183,0-5.088,4.528-5.088,7.374v10.867
			h-5.778V104.594z"/>
		<path display="inline" fill="#242F68" d="M257.316,114.209c6.598,0,11.643,4.441,11.643,11.772c0,6.382-4.269,11.47-11.643,11.47
			c-7.331,0-11.6-5.088-11.6-11.47C245.716,118.651,250.762,114.209,257.316,114.209z M257.316,132.967
			c4.442,0,5.606-3.967,5.606-7.675c0-3.407-1.811-6.598-5.606-6.598c-3.751,0-5.563,3.277-5.563,6.598
			C251.753,128.957,252.917,132.967,257.316,132.967z"/>
		<path display="inline" fill="#242F68" d="M275.553,114.727h5.39v3.105h0.086c1.811-2.717,4.441-3.623,6.597-3.623
			c3.105,0,5.304,1.165,6.555,3.924c1.337-2.674,4.226-3.924,6.942-3.924c5.477,0,7.029,3.752,7.029,8.71v14.015h-5.778v-13.238
			c0-2.07,0-5.002-3.32-5.002c-3.838,0-4.312,4.571-4.312,7.46v10.78h-5.778v-13.238c0-2.07,0-5.002-3.32-5.002
			c-3.838,0-4.312,4.571-4.312,7.46v10.78h-5.778V114.727z"/>
		<path display="inline" fill="#242F68" d="M317.118,115.891c2.242-1.035,5.261-1.682,7.719-1.682c6.77,0,9.573,2.803,9.573,9.357
			v2.846c0,2.242,0.043,3.924,0.086,5.563c0.043,1.682,0.129,3.234,0.259,4.959h-5.088c-0.216-1.164-0.216-2.63-0.259-3.32h-0.086
			c-1.337,2.458-4.226,3.838-6.856,3.838c-3.924,0-7.762-2.372-7.762-6.598c0-3.32,1.596-5.261,3.795-6.339s5.045-1.293,7.46-1.293
			h3.191c0-3.579-1.596-4.787-5.002-4.787c-2.458,0-4.916,0.949-6.856,2.415L317.118,115.891z M323.888,133.226
			c1.768,0,3.148-0.776,4.053-1.983c0.949-1.25,1.208-2.846,1.208-4.571h-2.501c-2.587,0-6.425,0.431-6.425,3.837
			C320.223,132.407,321.818,133.226,323.888,133.226z"/>
		<path display="inline" fill="#242F68" d="M355.407,119.384c-1.768-0.604-3.062-0.949-5.174-0.949
			c-1.553,0-3.407,0.561-3.407,2.458c0,3.536,10.047,1.293,10.047,9.314c0,5.175-4.614,7.245-9.314,7.245
			c-2.199,0-4.441-0.388-6.554-0.949l0.345-4.743c1.811,0.905,3.708,1.466,5.692,1.466c1.466,0,3.794-0.561,3.794-2.717
			c0-4.355-10.047-1.38-10.047-9.4c0-4.786,4.183-6.899,8.71-6.899c2.717,0,4.485,0.431,6.296,0.819L355.407,119.384z"/>
		<path display="inline" fill="#242F68" d="M394.299,112.355c-1.897-0.819-4.01-1.293-6.123-1.293c-2.07,0-4.743,0.905-4.743,4.183
			c0,5.218,13.195,3.019,13.195,13.109c0,6.598-5.217,9.099-11.297,9.099c-3.277,0-4.744-0.431-7.719-1.165l0.561-5.433
			c2.07,1.121,4.441,1.854,6.813,1.854c2.286,0,5.347-1.164,5.347-3.881c0-5.735-13.195-3.363-13.195-13.324
			c0-6.727,5.218-9.185,10.521-9.185c2.587,0,5.002,0.345,7.202,1.078L394.299,112.355z"/>
		<path display="inline" fill="#242F68" d="M421.549,135.684c-2.113,1.164-4.528,1.768-7.633,1.768c-7.331,0-11.6-4.226-11.6-11.514
			c0-6.425,3.407-11.729,10.306-11.729c8.236,0,10.564,5.649,10.564,13.411h-15.351c0.259,3.579,2.76,5.605,6.339,5.605
			c2.803,0,5.218-1.035,7.374-2.242V135.684z M417.668,123.653c-0.172-2.803-1.466-5.218-4.7-5.218
			c-3.234,0-4.873,2.242-5.131,5.218H417.668z"/>
		<path display="inline" fill="#242F68" d="M429.955,105.154h5.778v5.52h-5.778V105.154z M429.955,114.727h5.778v22.208h-5.778
			V114.727z"/>
		<path display="inline" fill="#242F68" d="M446.082,118.953h-4.269v-4.226h4.269v-3.104c0-4.442,2.501-7.546,7.072-7.546
			c1.466,0,3.105,0.215,4.226,0.474l-0.475,4.787c-0.517-0.302-1.25-0.776-2.501-0.776c-1.94,0-2.544,1.682-2.544,3.407v2.76h5.045
			v4.226h-5.045v17.981h-5.778V118.953z"/>
		<path display="inline" fill="#242F68" d="M480.706,135.684c-2.113,1.164-4.528,1.768-7.633,1.768c-7.331,0-11.6-4.226-11.6-11.514
			c0-6.425,3.407-11.729,10.306-11.729c8.236,0,10.565,5.649,10.565,13.411h-15.352c0.259,3.579,2.76,5.605,6.339,5.605
			c2.803,0,5.218-1.035,7.374-2.242V135.684z M476.825,123.653c-0.173-2.803-1.466-5.218-4.701-5.218
			c-3.234,0-4.873,2.242-5.131,5.218H476.825z"/>
		<path display="inline" fill="#242F68" d="M489.155,114.727h5.131v5.045h0.086c0.259-2.07,2.63-5.563,6.08-5.563
			c0.561,0,1.165,0,1.768,0.173v5.821c-0.518-0.302-1.552-0.475-2.587-0.475c-4.7,0-4.7,5.865-4.7,9.056v8.15h-5.778V114.727z"/>
		<path display="inline" fill="#242F68" d="M509.851,118.953h-4.269v-4.226h4.269v-4.441l5.778-1.854v6.296h5.131v4.226h-5.131
			v10.349c0,1.897,0.518,3.665,2.717,3.665c1.035,0,2.027-0.215,2.63-0.604l0.172,4.571c-1.208,0.345-2.544,0.518-4.269,0.518
			c-4.528,0-7.029-2.803-7.029-7.201V118.953z"/>
	</g>
	<g>
		<polyline fill-rule="evenodd" fill="#242F68" points="97.499,137.882 97.499,96.927 140.775,96.927 140.775,55.521 
			178.322,55.521 178.322,137.882 		"/>
		<polygon fill-rule="evenodd" fill="#FFED00" points="97.499,49.731 97.499,89.63 133.508,89.63 133.508,8.655 52.654,8.655 
			52.654,49.73 		"/>
		<rect x="9.376" y="56.968" fill-rule="evenodd" fill="#C20016" width="80.824" height="80.914"/>
	</g>
</g>
<path fill-rule="evenodd" fill="#30297F" d="M498.889,30.279"/>
<g>
	<path fill="#242F68" d="M205.037,64.552h5.939l7.883,20.877l7.739-20.877h5.939v25.125h-3.6V67.936h-0.072l-8.315,21.741h-3.527
		l-8.315-21.741h-0.072v21.741h-3.6V64.552z"/>
	<path fill="#242F68" d="M241.36,72.615c1.692-1.008,3.708-1.728,6.047-1.728c5.255,0,7.379,2.592,7.379,7.595v7.595
		c0,2.088,0.072,3.06,0.144,3.6h-3.168v-2.375h-0.072c-0.792,1.116-2.592,2.808-5.688,2.808c-3.959,0-6.731-1.728-6.731-5.724
		c0-4.607,5.04-6.047,8.531-6.047c1.332,0,2.268,0,3.6,0.072c0-3.167-1.152-4.788-4.535-4.788c-1.908,0-3.959,0.72-5.328,1.872
		L241.36,72.615z M251.403,80.93c-0.72,0-1.439-0.072-2.16-0.072c-1.836,0-6.371,0.288-6.371,3.527c0,1.944,1.872,2.988,3.419,2.988
		c3.348,0,5.111-2.088,5.111-4.823V80.93z"/>
	<path fill="#242F68" d="M262.78,62.681h3.384v26.997h-3.384V62.681z"/>
	<path fill="#242F68" d="M288.267,88.921c-1.296,0.468-2.772,1.188-5.795,1.188c-6.515,0-9.503-3.959-9.503-9.935
		c0-5.435,3.419-9.287,8.603-9.287c6.119,0,8.099,4.463,8.099,10.367h-13.103c0,3.635,2.844,6.119,6.047,6.119
		c2.231,0,4.823-1.152,5.651-1.836V88.921z M286.071,78.734c0-2.808-1.656-5.111-4.572-5.111c-3.312,0-4.679,2.736-4.931,5.111
		H286.071z"/>
	<path fill="#242F68" d="M296.045,71.319h3.167v2.844h0.072c0.9-1.908,2.844-3.275,4.788-3.275c1.008,0,1.512,0.108,2.231,0.252
		v3.023c-0.612-0.252-1.296-0.324-1.872-0.324c-3.023,0-5.003,2.879-5.003,7.487v8.351h-3.383V71.319z"/>
	<path fill="#242F68" d="M325.311,88.921c-1.296,0.468-2.772,1.188-5.795,1.188c-6.515,0-9.503-3.959-9.503-9.935
		c0-5.435,3.419-9.287,8.603-9.287c6.119,0,8.099,4.463,8.099,10.367h-13.103c0,3.635,2.844,6.119,6.047,6.119
		c2.231,0,4.823-1.152,5.651-1.836V88.921z M323.115,78.734c0-2.808-1.656-5.111-4.572-5.111c-3.312,0-4.679,2.736-4.931,5.111
		H323.115z"/>
	<path fill="#242F68" d="M337.12,67.216h-3.815V63.4h3.815V67.216z M333.52,71.319h3.384v18.358h-3.384V71.319z"/>
	<path fill="#242F68" d="M344.933,62.681h3.383v11.159h0.072c1.044-1.692,2.88-2.952,6.083-2.952c5.327,0,7.919,4.355,7.919,9.287
		c0,5.04-2.34,9.935-7.883,9.935c-3.276,0-5.363-1.656-6.263-3.024h-0.072v2.592h-3.239V62.681z M353.751,73.623
		c-3.672,0-5.436,3.492-5.436,6.911c0,3.06,1.584,6.839,5.399,6.839c3.635,0,5.147-4.067,5.075-6.947
		C358.863,77.115,357.423,73.623,353.751,73.623z"/>
	<path fill="#242F68" d="M382.838,88.921c-1.296,0.468-2.772,1.188-5.795,1.188c-6.515,0-9.503-3.959-9.503-9.935
		c0-5.435,3.419-9.287,8.603-9.287c6.119,0,8.099,4.463,8.099,10.367H371.14c0,3.635,2.844,6.119,6.047,6.119
		c2.231,0,4.823-1.152,5.651-1.836V88.921z M380.643,78.734c0-2.808-1.656-5.111-4.572-5.111c-3.312,0-4.679,2.736-4.931,5.111
		H380.643z"/>
	<path fill="#242F68" d="M400.371,74.055h-4.859v10.043c0,2.124,1.296,3.275,2.844,3.275c1.044,0,1.8-0.324,2.304-0.648v2.88
		c-0.756,0.216-1.8,0.504-2.879,0.504c-3.492,0-5.651-1.656-5.651-5.328V74.055h-4.14v-2.736h4.14v-4.247l3.383-1.08v5.327h4.859
		V74.055z"/>
	<path fill="#242F68" d="M406.456,71.319h3.167v2.844h0.072c0.9-1.908,2.844-3.275,4.788-3.275c1.008,0,1.512,0.108,2.231,0.252
		v3.023c-0.612-0.252-1.296-0.324-1.872-0.324c-3.023,0-5.003,2.879-5.003,7.487v8.351h-3.383V71.319z"/>
	<path fill="#242F68" d="M426.327,67.216h-3.815V63.4h3.815V67.216z M422.727,71.319h3.384v18.358h-3.384V71.319z"/>
	<path fill="#242F68" d="M448.214,88.921c-1.296,0.468-2.772,1.188-5.795,1.188c-6.515,0-9.503-3.959-9.503-9.935
		c0-5.435,3.419-9.287,8.603-9.287c6.119,0,8.099,4.463,8.099,10.367h-13.103c0,3.635,2.844,6.119,6.047,6.119
		c2.231,0,4.823-1.152,5.651-1.836V88.921z M446.018,78.734c0-2.808-1.656-5.111-4.572-5.111c-3.312,0-4.679,2.736-4.931,5.111
		H446.018z"/>
	<path fill="#242F68" d="M455.991,62.681h3.384v11.159h0.072c1.043-1.692,2.879-2.952,6.083-2.952c5.327,0,7.919,4.355,7.919,9.287
		c0,5.04-2.34,9.935-7.883,9.935c-3.276,0-5.363-1.656-6.263-3.024h-0.072v2.592h-3.24V62.681z M464.811,73.623
		c-3.672,0-5.436,3.492-5.436,6.911c0,3.06,1.584,6.839,5.399,6.839c3.635,0,5.147-4.067,5.075-6.947
		C469.922,77.115,468.482,73.623,464.811,73.623z"/>
</g>
<g>
	<path fill="#242F68" d="M211.843,111.55h-8.697v-4.784h23.483v4.784h-8.697v25.571h-6.088V111.55z"/>
	<path fill="#242F68" d="M232.148,104.505h5.828v13.264h0.087c1.479-2.174,4.001-3.566,7.045-3.566c5.306,0,7.61,3.74,7.61,8.785
		v14.133h-5.828v-11.959c0-2.74-0.043-6.436-3.783-6.436c-4.218,0-5.131,4.566-5.131,7.436v10.959h-5.828V104.505z"/>
	<path fill="#242F68" d="M271.154,114.203c6.654,0,11.742,4.479,11.742,11.872c0,6.436-4.305,11.568-11.742,11.568
		c-7.393,0-11.698-5.132-11.698-11.568C259.456,118.682,264.544,114.203,271.154,114.203z M271.154,133.12
		c4.479,0,5.653-4,5.653-7.741c0-3.436-1.826-6.653-5.653-6.653c-3.783,0-5.61,3.305-5.61,6.653
		C265.544,129.075,266.718,133.12,271.154,133.12z"/>
	<path fill="#242F68" d="M289.545,114.725h5.436v3.131h0.087c1.827-2.74,4.479-3.653,6.654-3.653c3.131,0,5.349,1.174,6.61,3.958
		c1.348-2.696,4.262-3.958,7.001-3.958c5.523,0,7.088,3.784,7.088,8.785v14.133h-5.827V123.77c0-2.087,0-5.044-3.349-5.044
		c-3.87,0-4.349,4.609-4.349,7.523v10.872h-5.827V123.77c0-2.087,0-5.044-3.349-5.044c-3.871,0-4.349,4.609-4.349,7.523v10.872
		h-5.828V114.725z"/>
	<path fill="#242F68" d="M331.463,115.898c2.261-1.043,5.305-1.696,7.784-1.696c6.828,0,9.654,2.827,9.654,9.437v2.87
		c0,2.261,0.043,3.957,0.087,5.61c0.043,1.696,0.13,3.261,0.261,5.001h-5.131c-0.217-1.174-0.217-2.653-0.261-3.349h-0.087
		c-1.348,2.479-4.262,3.871-6.915,3.871c-3.957,0-7.828-2.392-7.828-6.654c0-3.349,1.609-5.305,3.827-6.393s5.088-1.305,7.523-1.305
		h3.218c0-3.609-1.609-4.827-5.044-4.827c-2.479,0-4.958,0.957-6.915,2.436L331.463,115.898z M338.291,133.381
		c1.783,0,3.174-0.783,4.087-2c0.957-1.261,1.218-2.87,1.218-4.61h-2.522c-2.609,0-6.48,0.435-6.48,3.871
		C334.594,132.554,336.204,133.381,338.291,133.381z"/>
	<path fill="#242F68" d="M370.077,119.421c-1.783-0.609-3.087-0.957-5.218-0.957c-1.565,0-3.436,0.565-3.436,2.479
		c0,3.566,10.133,1.305,10.133,9.393c0,5.219-4.653,7.306-9.394,7.306c-2.218,0-4.479-0.392-6.61-0.957l0.348-4.783
		c1.827,0.913,3.74,1.479,5.74,1.479c1.479,0,3.827-0.565,3.827-2.74c0-4.393-10.133-1.392-10.133-9.48
		c0-4.827,4.218-6.958,8.785-6.958c2.74,0,4.522,0.435,6.349,0.826L370.077,119.421z"/>
	<path fill="#242F68" d="M404.603,112.333c-1.914-0.826-4.044-1.304-6.175-1.304c-2.087,0-4.784,0.913-4.784,4.218
		c0,5.262,13.307,3.044,13.307,13.22c0,6.653-5.262,9.176-11.394,9.176c-3.305,0-4.783-0.435-7.784-1.174l0.565-5.479
		c2.087,1.131,4.479,1.87,6.871,1.87c2.305,0,5.393-1.174,5.393-3.914c0-5.784-13.307-3.392-13.307-13.438
		c0-6.784,5.262-9.263,10.611-9.263c2.609,0,5.044,0.348,7.262,1.087L404.603,112.333z"/>
	<path fill="#242F68" d="M432.04,135.859c-2.131,1.174-4.566,1.783-7.697,1.783c-7.393,0-11.698-4.262-11.698-11.611
		c0-6.479,3.436-11.829,10.394-11.829c8.306,0,10.654,5.697,10.654,13.525h-15.481c0.261,3.609,2.783,5.653,6.393,5.653
		c2.827,0,5.262-1.044,7.437-2.262V135.859z M428.126,123.727c-0.174-2.827-1.479-5.262-4.74-5.262
		c-3.262,0-4.914,2.261-5.175,5.262H428.126z"/>
	<path fill="#242F68" d="M440.562,105.07h5.827v5.566h-5.827V105.07z M440.562,114.725h5.827v22.396h-5.827V114.725z"/>
	<path fill="#242F68" d="M456.78,118.986h-4.305v-4.262h4.305v-3.131c0-4.479,2.522-7.61,7.132-7.61
		c1.479,0,3.131,0.218,4.262,0.479l-0.479,4.827c-0.522-0.304-1.261-0.783-2.522-0.783c-1.957,0-2.565,1.696-2.565,3.436v2.783
		h5.088v4.262h-5.088v18.134h-5.828V118.986z"/>
	<path fill="#242F68" d="M491.699,135.859c-2.131,1.174-4.566,1.783-7.697,1.783c-7.393,0-11.698-4.262-11.698-11.611
		c0-6.479,3.436-11.829,10.394-11.829c8.306,0,10.655,5.697,10.655,13.525H477.87c0.261,3.609,2.783,5.653,6.393,5.653
		c2.827,0,5.262-1.044,7.437-2.262V135.859z M487.785,123.727c-0.174-2.827-1.479-5.262-4.74-5.262
		c-3.262,0-4.914,2.261-5.175,5.262H487.785z"/>
	<path fill="#242F68" d="M500.176,114.725h5.175v5.088h0.087c0.261-2.087,2.653-5.61,6.132-5.61c0.565,0,1.174,0,1.783,0.174v5.871
		c-0.521-0.305-1.565-0.479-2.609-0.479c-4.74,0-4.74,5.915-4.74,9.132v8.219h-5.828V114.725z"/>
	<path fill="#242F68" d="M521.048,118.986h-4.305v-4.262h4.305v-4.479l5.827-1.87v6.349h5.175v4.262h-5.175v10.437
		c0,1.914,0.522,3.696,2.74,3.696c1.044,0,2.044-0.217,2.653-0.609l0.174,4.61c-1.217,0.348-2.565,0.522-4.305,0.522
		c-4.566,0-7.088-2.827-7.088-7.263V118.986z"/>
</g>
<g>
</g>
<g>
</g>
<g>
</g>
<g>
</g>
<g>
</g>
<g>
</g>
</svg>
